<?xml version="1.0" encoding="utf-8"?>
<!-- Generator: Adobe Illustrator 17.0.0, SVG Export Plug-In . SVG Version: 6.00 Build 0)  -->
<!DOCTYPE svg PUBLIC "-//W3C//DTD SVG 1.1//EN" "http://www.w3.org/Graphics/SVG/1.1/DTD/svg11.dtd">
<svg version="1.1" id="Layer_1" xmlns="http://www.w3.org/2000/svg" xmlns:xlink="http://www.w3.org/1999/xlink" x="0px" y="0px"
   width="175px" height="21px" viewBox="-0.144 0 175 21" enable-background="new -0.144 0 175 21" xml:space="preserve">
<g>
  <g>
    <path fill="#FFFFFF" d="M5.569,0.416c4.569,0,6.825,2.713,6.825,5.94c0,2.885-1.913,5.255-5.112,5.884l6.197,8.511H10.68
      l-6.026-8.339H2.342v8.339H0V0.416H5.569z M2.342,10.183h3.199c2.684,0,4.483-1.514,4.483-3.827c0-2.285-1.856-3.713-4.512-3.713
      h-3.17V10.183z"/>
    <path fill="#FFFFFF" d="M26.06,0.416l8.725,20.334h-2.477l-1.954-4.741h-9.936l-1.926,4.741h-2.477l8.697-20.334
      C24.712,0.416,26.06,0.416,26.06,0.416z M26.528,6.842c-0.385-0.914-0.908-2.11-1.046-2.596h-0.138
      c-0.165,0.571-0.606,1.596-1.046,2.624l-2.945,6.912h8.064L26.528,6.842z"/>
    <path fill="#FFFFFF" d="M54.486,0.416h1.371V20.75h-2.342V8.26c0-1.228,0.057-2.685,0.086-3.256h-0.172
      c-0.342,0.428-1.142,1.371-1.799,2.028l-4.699,5.042l-4.7-5.042c-0.657-0.657-1.456-1.599-1.799-2.028h-0.2
      c0.029,0.571,0.114,2.028,0.114,3.256v12.49h-2.37V0.416h1.399l7.556,8.317L54.486,0.416z"/>
    <path fill="#FFFFFF" d="M67.083,0.416c4.427,0,6.426,2.685,6.426,5.569c0,1.742-0.971,3.512-2.371,4.227
      c1.856,0.771,3.142,2.884,3.142,4.798c0,3.741-2.97,5.741-6.454,5.741h-6.724V0.416H67.083z M63.443,9.326h3.897
      c2.228,0,3.856-1.028,3.856-3.341c0-2.171-1.771-3.342-3.941-3.342h-3.811v6.683H63.443z M63.443,18.523h4.268
      c2.342,0,4.17-1.143,4.17-3.57c0-2.285-1.771-3.398-4.37-3.398h-4.068C63.443,11.555,63.443,18.523,63.443,18.523z"/>
    <path fill="#FFFFFF" d="M81.17,18.523h9.19v2.227H78.828V0.416h2.342C81.17,0.416,81.17,18.523,81.17,18.523z"/>
    <path fill="#FFFFFF" d="M93.899,0.416h11.252v2.227h-8.91v6.226h8.653v2.285h-8.653v7.368h8.91v2.227H93.899V0.416z"/>
    <g>
      <path fill="#FFFFFF" d="M115.535,0.416c4.57,0,6.826,2.713,6.826,5.94c0,2.885-1.914,5.255-5.112,5.884l6.197,8.511h-2.799
        l-6.026-8.339h-2.313v8.339h-2.342V0.416H115.535z M112.308,10.183h3.199c2.685,0,4.484-1.514,4.484-3.827
        c0-2.285-1.857-3.713-4.512-3.713h-3.17L112.308,10.183L112.308,10.183z"/>
    </g>
    <path fill="#FFFFFF" d="M165.34,17.345c-0.052-0.134-0.09-0.276-0.103-0.425c-0.022-0.054-0.042-0.11-0.068-0.162
      c-0.042-0.084-0.087-0.167-0.133-0.248c-0.036-0.059-0.094-0.152-0.105-0.167c-0.14-0.202-0.283-0.402-0.439-0.592
      c-0.077-0.094-0.542-0.585-0.186-0.245c-0.097-0.092-0.18-0.193-0.255-0.298c-1.23,2.338-3.529,3.561-5.789,3.565
      c-4.674-0.008-7.709-3.774-7.709-8.253c0-4.512,3.227-8.253,7.911-8.253c1.799,0,3.484,0.628,4.912,1.685V1.295
      c-1.514-0.828-3.17-1.285-4.912-1.285c-5.712,0-10.309,4.626-10.309,10.509c0,5.861,4.381,10.446,10.061,10.479
      c0.012,0,0.024,0.002,0.036,0.002c0.004,0,0.008,0,0.012-0.001c0.005,0,0.009,0.001,0.014,0.001v-0.001
      C161.112,20.991,163.805,19.648,165.34,17.345z"/>
    <path fill="#FFFFFF" d="M168.557,8.218c3.589,0,6.156,2.871,6.156,6.405c0,3.478-2.567,6.377-6.156,6.377
      s-6.156-2.899-6.156-6.322C162.401,10.896,165.134,8.218,168.557,8.218z M168.557,18.957c2.153,0,3.865-1.795,3.865-4.362
      c0-2.595-1.877-4.334-3.865-4.334c-2.071,0-3.865,1.767-3.865,4.39C164.692,17.025,166.349,18.957,168.557,18.957z"/>
    <path fill="#FFFFFF" d="M143.372,20.68l-3.228-3.399c-1.857,2.485-3.913,3.713-6.141,3.713c-1.828,0-3.342-0.6-4.57-1.771
      c-1.228-1.2-1.828-2.628-1.828-4.313c0-2.713,1.628-4.199,4.713-6.112c-1.485-1.514-2.228-2.942-2.228-4.256
      c0-1.342,0.486-2.428,1.428-3.256C132.461,0.428,133.632,0,134.974,0s2.485,0.428,3.428,1.285
      c0.971,0.857,1.457,1.942,1.457,3.285c0,1.742-1.257,3.342-3.799,4.798l3.913,4.228l2.057-3.285h2.77l-3.199,5.027l4.999,5.341
      L143.372,20.68L143.372,20.68z M133.898,10.391c-2.701,1.32-4.051,2.941-4.051,4.891c0,0.96,0.42,1.8,1.261,2.551
      c0.84,0.75,1.77,1.11,2.76,1.11c0.69,0,1.38-0.21,2.071-0.6c0.69-0.42,1.171-0.81,1.501-1.17c0.33-0.39,0.78-0.9,1.291-1.59
      L133.898,10.391z M134.405,7.795c0.84-0.39,1.291-0.66,2.041-1.23c0.75-0.6,1.17-1.32,1.17-2.161c0-1.44-1.14-2.431-2.671-2.431
      s-2.641,1.051-2.641,2.341C132.304,5.274,132.995,6.444,134.405,7.795z"/>
  </g>
</g>
</svg>
