<?xml version="1.0" standalone="no"?>
<!DOCTYPE svg PUBLIC "-//W3C//DTD SVG 1.1//EN" "http://www.w3.org/Graphics/SVG/1.1/DTD/svg11.dtd" >
<svg xmlns="http://www.w3.org/2000/svg" xmlns:xlink="http://www.w3.org/1999/xlink" version="1.1">
<metadata></metadata>
<defs>
<font id="web_serveroffregular" horiz-adv-x="798" >
<font-face units-per-em="2048" ascent="1536" descent="-512" />
<missing-glyph horiz-adv-x="716" />
<glyph horiz-adv-x="0" />
<glyph horiz-adv-x="682" />
<glyph unicode=" "  horiz-adv-x="716" />
<glyph unicode="&#x09;" horiz-adv-x="716" />
<glyph unicode="&#xa0;" horiz-adv-x="716" />
<glyph unicode="!" horiz-adv-x="286" d="M106 0v229h72v-229h-72zM106 397v1024h72v-1024h-72z" />
<glyph unicode="&#x22;" horiz-adv-x="471" d="M106 1151v369h72v-369h-72zM287 1151v369h69v-369h-69z" />
<glyph unicode="#" horiz-adv-x="917" d="M106 4l136 512h-133v72h153l66 246h-140v71h158l141 531l72 -17l-137 -514h162l141 531l72 -17l-138 -514h136v-71h-156l-66 -246h144v-72h-162l-141 -530l-70 18l135 512h-162l-141 -530zM336 588h164l65 246h-164z" />
<glyph unicode="$" horiz-adv-x="860" d="M111 31v73q70 -23 138 -36t138 -17v627q-43 6 -92 19.5t-90 47t-67.5 92t-26.5 152.5v137q0 150 79.5 225.5t196.5 86.5v182h72v-180q117 -6 239 -37v-76q-66 16 -125 27.5t-114 15.5v-629q43 -4 92 -18t91 -47t68.5 -91.5t26.5 -152.5v-139q0 -74 -21.5 -130.5 t-59.5 -95t-89 -59t-108 -26.5v-181h-72v181q-141 6 -276 49zM182 989q0 -72 19.5 -116t50.5 -70.5t66.5 -37.5t68.5 -15v618q-88 -10 -146.5 -67.5t-58.5 -174.5v-137zM459 53q88 8 147.5 65.5t59.5 174.5v139q0 70 -19.5 115t-50.5 70.5t-67.5 37t-69.5 15.5v-617z" />
<glyph unicode="%" horiz-adv-x="962" d="M90 860v416q0 84 48 124t118 40q68 0 116 -40t48 -124v-416q0 -88 -48 -127t-116 -39q-70 0 -118 39t-48 127zM106 10l670 1434l62 -31l-672 -1438zM162 860q0 -47 27.5 -70.5t66.5 -23.5t65.5 23.5t26.5 70.5v416q0 47 -26.5 70.5t-65.5 23.5t-66.5 -23.5t-27.5 -70.5 v-416zM528 145v416q0 84 48.5 125t115.5 41q68 0 117 -41t49 -125v-416q0 -86 -49 -125.5t-117 -39.5t-116 39.5t-48 125.5zM600 145q0 -47 26.5 -70.5t65.5 -23.5t66.5 23.5t27.5 70.5v416q0 47 -27.5 70.5t-66.5 23.5t-65.5 -23.5t-26.5 -70.5v-416z" />
<glyph unicode="&#x26;" horiz-adv-x="1003" d="M113 293v139q0 68 15 116t41 81t58.5 52t69.5 30q-37 10 -69.5 29.5t-58.5 52t-41 81t-15 115.5v137q0 80 24.5 139.5t66.5 98.5t99 57.5t123 18.5q137 0 272 -49v-78q-150 57 -272 57q-51 0 -95 -14.5t-77 -43t-52.5 -75.5t-19.5 -111v-137q0 -82 28 -130t67.5 -73.5 t84 -33t78.5 -7.5h498v-71h-199v-381q0 -160 -80.5 -236.5t-218.5 -76.5q-68 0 -128 19t-104 57t-69.5 97.5t-25.5 139.5zM182 293q0 -63 20.5 -109.5t55.5 -75t82 -43t100 -14.5q109 0 168.5 56.5t59.5 185.5v381h-228q-35 0 -79 -7.5t-83.5 -32t-67.5 -72.5t-28 -130v-139 z" />
<glyph unicode="'" horiz-adv-x="286" d="M106 1151v369h72v-369h-72z" />
<glyph unicode="(" horiz-adv-x="450" d="M106 135v1151q0 162 76 257t215 95v-69q-109 0 -164 -77t-55 -206v-1151q0 -129 55.5 -205.5t163.5 -76.5v-72q-139 0 -215 96t-76 258z" />
<glyph unicode=")" horiz-adv-x="450" d="M47 -147q109 0 164 76.5t55 205.5v1151q0 129 -55 206t-164 77v69q139 0 214 -95t75 -257v-1151q0 -162 -75 -258t-214 -96v72z" />
<glyph unicode="*" horiz-adv-x="688" d="M100 1280l43 59l160 -112v194h72v-194l160 112l40 -61l-172 -121l172 -121l-40 -61l-160 110v-192h-72v192l-160 -110l-41 61l172 121z" />
<glyph unicode="+" horiz-adv-x="757" d="M109 674v71h229v230h72v-230h227v-71h-227v-228h-72v228h-229z" />
<glyph unicode="," horiz-adv-x="327" d="M90 -258q25 68 38 134.5t17 123.5h-39v190h111v-174q0 -70 -13.5 -137t-35.5 -137h-78z" />
<glyph unicode="-" horiz-adv-x="757" d="M109 674v71h528v-71h-528z" />
<glyph unicode="." horiz-adv-x="327" d="M106 0v190h111v-190h-111z" />
<glyph unicode="/" horiz-adv-x="835" d="M47 10l668 1434l61 -31l-670 -1438z" />
<glyph unicode="0" horiz-adv-x="860" d="M111 293v833q0 80 24.5 139.5t67.5 98.5t99 57.5t122 18.5q63 0 120.5 -18.5t100.5 -57.5t67.5 -98.5t24.5 -139.5v-833q0 -80 -24.5 -139.5t-67.5 -97.5t-100.5 -57t-120.5 -19q-66 0 -122 19t-99 57t-67.5 97.5t-24.5 139.5zM182 274l455 981q-29 59 -85 87t-128 28 q-102 0 -172 -57.5t-70 -186.5v-833v-19zM207 166q31 -59 88 -87t129 -28q51 0 95 14.5t77 43t51.5 74.5t18.5 110v833q0 6 -1 11.5t-1 11.5z" />
<glyph unicode="1" horiz-adv-x="368" d="M6 1362v72h211v-1434h-72v1362h-139z" />
<glyph unicode="2" horiz-adv-x="860" d="M111 0v432q0 102 31.5 162.5t79.5 93.5t102.5 43t97.5 14q33 2 75 10.5t79.5 33t63.5 71.5t26 129v137q0 129 -70 186.5t-172 57.5q-63 0 -132 -14.5t-142 -42.5v78q137 49 274 49q63 0 120.5 -18.5t100.5 -57.5t67.5 -98.5t24.5 -139.5v-137q0 -102 -31.5 -163.5 t-79.5 -93.5t-102.5 -43t-97.5 -15q-33 -2 -75 -9.5t-80 -32t-63.5 -71.5t-25.5 -129v-360h555v-72h-626z" />
<glyph unicode="3" horiz-adv-x="860" d="M111 1362v72h626v-58l-219 -485q96 -27 157.5 -100.5t61.5 -198.5v-299q0 -80 -24.5 -139.5t-67.5 -97.5t-100.5 -57t-120.5 -19q-70 0 -137.5 13t-136.5 38v75q74 -27 142.5 -41t131.5 -14q51 0 95 14.5t77 43t51.5 74.5t18.5 110v299q0 63 -20.5 109.5t-55.5 75t-82 43 t-100 14.5v71q10 0 19 -1t19 -1l205 459h-540z" />
<glyph unicode="4" horiz-adv-x="903" d="M104 516l7 19v12h2l272 874h78l-273 -874h459v477h72v-477h119v-70h-119v-477h-72v477h-538v39h-7z" />
<glyph unicode="5" horiz-adv-x="860" d="M150 31v75q74 -27 142 -41t132 -14q51 0 95 14.5t77 43t51.5 74.5t18.5 110v299q0 63 -18.5 109.5t-51.5 75t-77 43t-95 14.5q-33 0 -66.5 -12.5t-61.5 -39t-47.5 -68.5t-25.5 -100q-2 -10 -2 -19v-20h-71l40 846h527v-71h-455l-31 -566q31 61 81 91t112 30 q63 0 120.5 -19.5t100.5 -57t67.5 -97t24.5 -139.5v-299q0 -80 -24.5 -139.5t-67.5 -97.5t-100.5 -57t-120.5 -19q-70 0 -137.5 13t-136.5 38z" />
<glyph unicode="6" horiz-adv-x="860" d="M111 293v833q0 80 24.5 139.5t67.5 98.5t99 57.5t122 18.5q135 0 274 -49v-78q-74 29 -142.5 43t-131.5 14q-102 0 -172 -57.5t-70 -186.5v-288q63 29 129 48t113 19q63 0 120.5 -19.5t100.5 -57t67.5 -97t24.5 -139.5v-283q0 -84 -24.5 -146.5t-67.5 -103.5t-100.5 -60 t-120.5 -19q-66 0 -122 19t-99 57t-67.5 97.5t-24.5 139.5zM182 293q0 -127 70 -184.5t172 -57.5q51 0 95 14.5t77 46t51.5 81t18.5 116.5v283q0 63 -18.5 109.5t-51.5 75t-77 43t-95 14.5q-55 0 -115.5 -11.5t-126.5 -34.5v-495z" />
<glyph unicode="7" horiz-adv-x="860" d="M70 1362v72h651v-60l-420 -1374h-78l416 1362h-569z" />
<glyph unicode="8" horiz-adv-x="860" d="M111 293v139q0 123 47 185.5t112 91.5q-66 29 -112.5 93t-46.5 187v137q0 152 87 233t224 81q139 0 227 -81t88 -233v-137q0 -123 -47 -187.5t-112 -92.5q66 -29 112.5 -91.5t46.5 -185.5v-139q0 -152 -88 -232.5t-227 -80.5q-137 0 -224 80.5t-87 232.5zM182 293 q0 -123 70 -182.5t172 -59.5t172 59.5t70 182.5v139q0 74 -22.5 120t-57.5 72.5t-77 37t-83 10.5q-43 0 -86 -10.5t-78 -37t-57.5 -72.5t-22.5 -120v-139zM182 989q0 -106 64.5 -175t175.5 -69q102 0 173 63.5t71 180.5v137q0 123 -70 183.5t-172 60.5t-172 -60.5 t-70 -183.5v-137z" />
<glyph unicode="9" horiz-adv-x="860" d="M111 829v283q0 84 24.5 146.5t67.5 102.5t99 59.5t122 19.5q63 0 120.5 -18.5t100.5 -57.5t67.5 -98.5t24.5 -139.5v-833q0 -80 -24.5 -139.5t-67.5 -97.5t-100.5 -57t-120.5 -19q-70 0 -137.5 13t-136.5 38v75q74 -27 142.5 -41t131.5 -14q51 0 95 14.5t77 43t51.5 74.5 t18.5 110v289q-66 -27 -130.5 -46.5t-111.5 -19.5q-66 0 -122 18.5t-99 57.5t-67.5 98.5t-24.5 138.5zM182 829q0 -127 70 -184t172 -57q55 0 115.5 11t126.5 34v493q0 129 -70 186.5t-172 57.5q-51 0 -95 -14.5t-77 -46t-51.5 -80.5t-18.5 -117v-283z" />
<glyph unicode=":" horiz-adv-x="327" d="M106 0v190h111v-190h-111zM106 555v190h111v-190h-111z" />
<glyph unicode=";" horiz-adv-x="327" d="M90 -258q25 68 38 134.5t17 123.5h-39v190h111v-174q0 -70 -13.5 -137t-35.5 -137h-78zM106 555v190h111v-190h-111z" />
<glyph unicode="&#x3c;" horiz-adv-x="636" d="M100 711l375 374l51 -51l-323 -323l323 -324l-51 -51z" />
<glyph unicode="=" horiz-adv-x="757" d="M109 596v72h528v-72h-528zM109 754v71h528v-71h-528z" />
<glyph unicode="&#x3e;" horiz-adv-x="636" d="M100 387l324 324l-324 323l52 51l374 -374l-374 -375z" />
<glyph unicode="?" horiz-adv-x="819" d="M111 1313v78q135 49 272 49q66 0 123 -18.5t99 -57.5t66.5 -98.5t24.5 -139.5v-137q0 -96 -24.5 -154.5t-59 -91t-71.5 -46t-62 -19.5l-18 -4q-12 -4 -39 -14.5t-53.5 -37t-47 -72.5t-20.5 -118v-115h-72v115q0 94 27 153.5t63.5 93.5t73.5 47t56 17l-5 -2l31 11 q20 6 47 16t49.5 34.5t39 68.5t16.5 118v137q0 63 -19.5 110.5t-52.5 76t-77 43t-95 14.5q-123 0 -272 -57zM229 0v190h72v-190h-72z" />
<glyph unicode="@" d="M80 293v438q0 80 24.5 139.5t67.5 97.5t99.5 57t121.5 19q63 0 120.5 -19t100.5 -57t68 -97.5t25 -139.5v-383q0 -55 -35 -82.5t-82 -27.5q-33 0 -60.5 12t-44.5 39q-16 -27 -40.5 -39t-51.5 -12q-63 0 -107 36.5t-44 112.5v248q0 78 44 114.5t107 36.5q45 0 78 -32v12 h72v-418q0 -20 13 -29.5t34 -9.5q18 0 31.5 9.5t13.5 29.5v383q0 63 -18.5 109.5t-51.5 75t-77 43t-95 14.5q-102 0 -171.5 -57.5t-69.5 -184.5v-438q0 -127 69.5 -184.5t171.5 -57.5q63 0 132 14.5t143 40.5v-75q-70 -25 -137.5 -38t-137.5 -13q-66 0 -122 19t-99 57 t-67.5 97.5t-24.5 139.5zM313 387q0 -41 22.5 -59.5t57.5 -18.5q31 0 52.5 16.5t25.5 53.5v264q-4 35 -25.5 53.5t-52.5 18.5q-35 0 -57.5 -19.5t-22.5 -60.5v-248z" />
<glyph unicode="A" horiz-adv-x="860" d="M45 0l344 1434h72l342 -1434h-78l-80 340h-442l-82 -340h-76zM219 412h408l-201 858z" />
<glyph unicode="B" horiz-adv-x="839" d="M109 0v1434h280q70 0 130.5 -19.5t105.5 -58.5t70.5 -98.5t25.5 -139.5v-121q0 -63 -13.5 -109t-36 -80t-52 -55.5t-62.5 -35.5q33 -14 62.5 -36t52 -55.5t36 -80.5t13.5 -109v-121q0 -80 -25.5 -139t-70.5 -98t-105.5 -58.5t-130.5 -19.5h-280zM180 72h209 q55 0 102.5 14t82 43t55 75t20.5 111v121q0 82 -27.5 130t-67.5 72t-85 31t-80 11h-209v-608zM180 754h209q35 2 80 10t85 31.5t67.5 70.5t27.5 131v121q0 63 -20.5 110.5t-55 76t-82 43t-102.5 14.5h-209v-608z" />
<glyph unicode="C" horiz-adv-x="778" d="M109 297v840q0 82 25.5 141t68.5 98t100 58.5t123 19.5q133 0 276 -51v-78q-74 29 -143.5 43t-132.5 14q-51 0 -96 -14t-78 -44t-52.5 -77t-19.5 -110v-840q0 -66 19.5 -112t52.5 -75.5t78 -44t96 -14.5q63 0 133 14.5t143 43.5v-78q-143 -51 -276 -51q-66 0 -123 19 t-100 58t-68.5 98.5t-25.5 141.5z" />
<glyph unicode="D" horiz-adv-x="839" d="M109 0v1434h297q66 0 123 -19.5t100 -58.5t67.5 -98.5t24.5 -139.5v-803q0 -80 -24.5 -139t-67.5 -98t-100.5 -58.5t-122.5 -19.5h-297zM180 72h226q51 0 95 14t76.5 43t52 75t19.5 111v803q0 63 -19.5 110.5t-52 76t-76.5 43t-95 14.5h-226v-1290z" />
<glyph unicode="E" horiz-adv-x="716" d="M109 0v1434h553v-72h-482v-608h422v-74h-422v-608h482v-72h-553z" />
<glyph unicode="F" horiz-adv-x="716" d="M109 0v1434h553v-72h-482v-608h422v-74h-422v-680h-71z" />
<glyph unicode="G" horiz-adv-x="860" d="M109 297v840q0 82 25.5 141t68.5 98t100 58.5t123 19.5q68 0 136.5 -10t139.5 -29v-76q-74 20 -143.5 31.5t-132.5 11.5q-51 0 -96 -14t-78 -44t-52.5 -77t-19.5 -110v-840q0 -66 19.5 -112t52.5 -75.5t78 -44t96 -14.5q59 0 120.5 8.5t123.5 24.5v596h-260v74h331v-723 q-78 -25 -156.5 -38t-158.5 -13q-66 0 -123 19t-100 58t-68.5 98.5t-25.5 141.5z" />
<glyph unicode="H" horiz-adv-x="839" d="M109 0v1434h71v-680h469v680h72v-1434h-72v680h-469v-680h-71z" />
<glyph unicode="I" horiz-adv-x="286" d="M106 0v1434h72v-1434h-72z" />
<glyph unicode="J" horiz-adv-x="757" d="M49 31v78q150 -58 275 -58q51 0 96 14.5t77.5 44t52 75.5t19.5 112v1137h72v-1137q0 -82 -25.5 -141.5t-68.5 -98.5t-100.5 -58t-122.5 -19q-70 0 -138.5 13t-136.5 38z" />
<glyph unicode="K" horiz-adv-x="839" d="M109 0v1434h73v-680h221l316 680h78l-334 -717l336 -717h-78l-318 680h-221v-680h-73z" />
<glyph unicode="L" horiz-adv-x="716" d="M109 0v1434h71v-1362h482v-72h-553z" />
<glyph unicode="M" horiz-adv-x="1095" d="M104 1434h78l363 -977l356 977h80l-4 -13v-1421h-72v1227l-325 -887h-68l-334 895v-1235h-72v1427z" />
<glyph unicode="N" horiz-adv-x="839" d="M109 0v1434h67l473 -1213v1213h72v-1434h-66l-475 1212v-1212h-71z" />
<glyph unicode="O" horiz-adv-x="860" d="M109 297v840q0 82 25.5 141t68.5 98t100 58.5t123 19.5t123 -19.5t100 -58.5t67.5 -98t24.5 -141v-840q0 -82 -24.5 -141.5t-67.5 -98.5t-100 -58t-123 -19t-123 19t-100 58t-68.5 98.5t-25.5 141.5zM180 297q0 -66 19.5 -112t52.5 -75.5t78 -44t96 -14.5t95 14.5t77 44 t52.5 75.5t19.5 112v840q0 63 -19.5 110t-52.5 77t-77 44t-95 14t-96 -14t-78 -44t-52.5 -77t-19.5 -110v-840z" />
<glyph unicode="P" d="M109 0v1434h280q70 0 130.5 -19.5t105.5 -58.5t70.5 -98.5t25.5 -139.5v-280q0 -104 -34 -167t-85 -96.5t-108.5 -44t-104.5 -10.5h-209v-520h-71zM180 592h209q35 0 80 7t85 32.5t67.5 74t27.5 132.5v280q0 63 -20.5 110.5t-55 76t-82 43t-102.5 14.5h-209v-770z" />
<glyph unicode="Q" horiz-adv-x="860" d="M109 297v840q0 82 25.5 141t68.5 98t100 58.5t123 19.5t123 -19.5t100 -58.5t67.5 -98t24.5 -141v-840q0 -98 -34.5 -164.5t-94.5 -103.5l107 -230h-78l-94 201q-29 -10 -58.5 -15t-62.5 -5q-66 0 -123 19t-100 58t-68.5 98.5t-25.5 141.5zM180 297q0 -66 19.5 -112 t52.5 -75.5t78 -44t96 -14.5q47 0 90 12l-115 250h78l101 -219q41 29 65.5 79t24.5 124v840q0 63 -19.5 110t-52.5 77t-77 44t-95 14t-96 -14t-78 -44t-52.5 -77t-19.5 -110v-840z" />
<glyph unicode="R" horiz-adv-x="839" d="M109 0v1434h280q70 0 130.5 -19.5t105.5 -58.5t71.5 -98.5t26.5 -139.5v-280q0 -72 -17.5 -124t-46 -87t-64.5 -56.5t-75 -33.5l250 -537h-78l-243 522q-16 -2 -31 -2h-29h-207v-520h-73zM182 592h207q35 0 80 7t85 32.5t67.5 74t27.5 132.5v280q0 63 -20.5 110.5t-55 76 t-82 43t-102.5 14.5h-207v-770z" />
<glyph unicode="S" horiz-adv-x="860" d="M109 31v75q80 -27 159.5 -41t157.5 -14q51 0 95 14.5t77 44t52.5 75.5t19.5 112v139q0 82 -26 129t-63.5 72t-80.5 32t-76 11q-45 4 -99.5 15.5t-102.5 44t-80.5 93t-32.5 164.5v140q0 82 25.5 141t68.5 98t100 58.5t123 19.5q68 0 136.5 -10t139.5 -29v-76 q-74 20 -143.5 31.5t-132.5 11.5q-51 0 -96 -14t-78 -44t-52.5 -77t-19.5 -110v-140q0 -82 26.5 -129t64.5 -71.5t81 -32.5t76 -10q43 -4 98.5 -15.5t102.5 -44t79.5 -93t32.5 -165.5v-139q0 -82 -24.5 -141.5t-67.5 -98.5t-100 -58t-123 -19q-80 0 -160 13t-157 38z" />
<glyph unicode="T" horiz-adv-x="737" d="M49 1362v72h633v-72h-281v-1362h-71v1362h-281z" />
<glyph unicode="U" horiz-adv-x="839" d="M109 297v1137h71v-1137q0 -129 66.5 -187.5t169.5 -58.5q100 0 166.5 58.5t66.5 187.5v1137h72v-1137q0 -82 -22.5 -141.5t-63.5 -98.5t-97.5 -58t-121.5 -19q-66 0 -122 19t-97 58t-64.5 98.5t-23.5 141.5z" />
<glyph unicode="V" horiz-adv-x="860" d="M45 1434h76l305 -1268l299 1268h78l-342 -1434h-72z" />
<glyph unicode="W" horiz-adv-x="1212" d="M47 1434h76l264 -1254q47 229 92 458.5t88 457.5h68l184 -916q66 313 131.5 626.5t128.5 627.5h78l-301 -1434h-72l-182 909l-178 -909h-72z" />
<glyph unicode="X" horiz-adv-x="860" d="M51 1434h78l297 -635l291 635h80l-334 -717l336 -717h-80l-293 633l-295 -633h-78l334 717z" />
<glyph unicode="Y" horiz-adv-x="860" d="M43 1434h76l307 -809l301 809h78l-344 -920v-514h-72v518z" />
<glyph unicode="Z" horiz-adv-x="860" d="M109 0v57l532 1305h-532v72h616v-58l-532 -1304h532v-72h-616z" />
<glyph unicode="[" horiz-adv-x="491" d="M109 -199v1819h309v-72h-240v-1675h240v-72h-309z" />
<glyph unicode="\" horiz-adv-x="835" d="M47 1413l62 31l667 -1436l-59 -33z" />
<glyph unicode="]" horiz-adv-x="491" d="M68 -127h237v1675h-237v72h309v-1819h-309v72z" />
<glyph unicode="^" horiz-adv-x="970" d="M102 1153l375 375l53 -51l-2 -2l326 -322l-53 -51l-324 321l-321 -321z" />
<glyph unicode="_" horiz-adv-x="757" d="M10 -424h729v-72h-729v72z" />
<glyph unicode="`" horiz-adv-x="606" d="M100 1397l45 59l353 -246l-47 -59z" />
<glyph unicode="a" d="M109 264h2v80q0 74 22.5 127t60 88t89 51.5t110.5 16.5h213v133q0 55 -16.5 95t-45 66.5t-66.5 39t-81 12.5q-47 0 -111.5 -14.5t-135.5 -40.5v75q143 51 249 51q55 0 106.5 -16t89.5 -52t60.5 -89t22.5 -127v-760h-72v29q-59 -20 -115.5 -34.5t-97.5 -14.5 q-59 0 -111.5 16t-90 52t-60 89t-22.5 127zM180 264q0 -111 61.5 -162t151.5 -51q96 0 213 35v469h-213q-90 0 -151.5 -51t-61.5 -160v-80z" />
<glyph unicode="b" d="M111 0v1536h69v-547q57 23 114.5 39t98.5 16q59 0 111.5 -16t90.5 -52t60.5 -89t22.5 -127v-496q0 -74 -22.5 -127t-60.5 -89t-90 -52t-112 -16q-41 0 -98 15t-115 38v-33h-69zM180 86q117 -35 213 -35q90 0 151.5 51.5t61.5 161.5v496q0 111 -61.5 162t-151.5 51 q-100 0 -213 -37v-850z" />
<glyph unicode="c" horiz-adv-x="757" d="M109 264v496q0 74 22.5 127t60 89t90 52t111.5 16q47 0 111.5 -13t132.5 -38v-75q-72 27 -137.5 41t-106.5 14q-90 0 -151.5 -51.5t-61.5 -161.5v-496q0 -111 61.5 -162t151.5 -51q41 0 106.5 14.5t137.5 40.5v-75q-68 -25 -132.5 -38t-111.5 -13q-59 0 -111.5 16t-90 52 t-60 89t-22.5 127z" />
<glyph unicode="d" d="M111 264v496q0 74 22.5 127t60 89t89 52t110.5 16q53 0 106.5 -14t106.5 -35v541h72v-1536h-72v27q-53 -18 -106.5 -32.5t-106.5 -14.5q-59 0 -110.5 16t-89 52t-60 89t-22.5 127zM180 264q0 -111 61.5 -162t151.5 -51q96 0 213 35v850q-115 37 -213 37 q-90 0 -151.5 -51.5t-61.5 -161.5v-496z" />
<glyph unicode="e" d="M111 264v496q0 74 22.5 127t60 89t89 52t110.5 16t111.5 -16t90.5 -52t60.5 -89t22.5 -127v-283h-498v-213q0 -111 61.5 -162t151.5 -51q41 0 106.5 14.5t137.5 40.5v-75q-68 -25 -132.5 -38t-111.5 -13q-59 0 -110.5 16t-89 52t-60 89t-22.5 127zM180 547h426v213 q0 111 -61.5 162t-151.5 51t-151.5 -51.5t-61.5 -161.5v-213z" />
<glyph unicode="f" horiz-adv-x="593" d="M49 952v72h158v162q0 74 23.5 127t64.5 88t95 51t118 16v-69q-96 0 -162.5 -51.5t-66.5 -161.5v-162h258v-72h-258v-952h-72v952h-158z" />
<glyph unicode="g" d="M111 264v496q0 74 22.5 127t60 89t89 52t110.5 16q53 0 106.5 -14t106.5 -35v29h72v-1255q0 -74 -22.5 -127.5t-60.5 -89t-90 -52t-112 -16.5q-68 0 -136.5 13.5t-137.5 35.5v78q74 -27 142.5 -41t131.5 -14q90 0 151.5 51t61.5 162v258q-53 -18 -106.5 -32.5 t-106.5 -14.5q-59 0 -110.5 16t-89 52t-60 89t-22.5 127zM180 264q0 -111 61.5 -162t151.5 -51q96 0 213 35v850q-115 37 -213 37q-90 0 -151.5 -51.5t-61.5 -161.5v-496z" />
<glyph unicode="h" d="M111 0v1536h69v-541q53 20 106.5 34.5t106.5 14.5q59 0 111.5 -16t90.5 -52t60.5 -89t22.5 -127v-760h-72v760q0 111 -61.5 162t-151.5 51q-100 0 -213 -37v-936h-69z" />
<glyph unicode="i" horiz-adv-x="286" d="M106 0v1024h72v-1024h-72zM106 1190v244h72v-244h-72z" />
<glyph unicode="j" horiz-adv-x="286" d="M-125 -444q96 0 162.5 51t66.5 162v1255h72v-1255q0 -74 -23.5 -127.5t-64.5 -89t-95 -52t-118 -16.5v72zM104 1190v244h72v-244h-72z" />
<glyph unicode="k" horiz-adv-x="753" d="M111 0v1536h69v-989h203l219 477h78l-240 -512l242 -512h-78l-221 477h-203v-477h-69z" />
<glyph unicode="l" horiz-adv-x="286" d="M106 0v1536h72v-1536h-72z" />
<glyph unicode="m" horiz-adv-x="1187" d="M113 0v1024h71v-33q53 23 101.5 38t83.5 15q115 0 186 -71q66 29 133.5 50t116.5 21q51 0 97 -16t80 -48t54.5 -79t20.5 -110v-791h-72v791q0 94 -53 138t-127 44q-51 0 -106.5 -10.5t-114.5 -28.5q37 -59 37 -143v-791h-72v791q0 94 -53.5 138t-126.5 44 q-47 0 -91.5 -8.5t-93.5 -24.5v-940h-71z" />
<glyph unicode="n" d="M111 0v1024h69v-35q57 23 114.5 39t98.5 16q59 0 111.5 -16t90.5 -52t60.5 -89t22.5 -127v-760h-72v760q0 111 -61.5 162t-151.5 51q-100 0 -213 -37v-936h-69z" />
<glyph unicode="o" d="M111 264v496q0 74 22.5 127t60 89t89 52t110.5 16t111.5 -16t90.5 -52t60.5 -89t22.5 -127v-496q0 -74 -22.5 -127t-60.5 -89t-90 -52t-112 -16q-59 0 -110.5 16t-89 52t-60 89t-22.5 127zM180 264q0 -111 61.5 -162t151.5 -51t151.5 51.5t61.5 161.5v496 q0 111 -61.5 162t-151.5 51t-151.5 -51.5t-61.5 -161.5v-496z" />
<glyph unicode="p" d="M111 -496v1520h69v-29q53 20 106.5 34.5t106.5 14.5q59 0 111.5 -16t90.5 -52t60.5 -89t22.5 -127v-496q0 -74 -22.5 -127t-60.5 -89t-90.5 -52t-111.5 -16q-53 0 -106.5 14t-106.5 33v-523h-69zM180 86q117 -35 213 -35q90 0 151.5 51.5t61.5 161.5v496q0 111 -61.5 162 t-151.5 51q-100 0 -213 -37v-850z" />
<glyph unicode="q" d="M111 264v496q0 74 22.5 127t60 89t89 52t110.5 16q53 0 106.5 -14t106.5 -35v29h72v-1520h-72v523q-53 -18 -106.5 -32.5t-106.5 -14.5q-59 0 -110.5 16t-89 52t-60 89t-22.5 127zM180 264q0 -111 61.5 -162t151.5 -51q96 0 213 35v850q-115 37 -213 37 q-90 0 -151.5 -51.5t-61.5 -161.5v-496z" />
<glyph unicode="r" horiz-adv-x="419" d="M109 0v1024h69v-35q57 23 114.5 39t100.5 16v-71q-102 0 -215 -37v-936h-69z" />
<glyph unicode="s" d="M111 754q0 76 22.5 131t60 91t89 52t110.5 16q47 0 111.5 -13t132.5 -38v-75q-72 27 -137.5 41t-106.5 14q-90 0 -151.5 -52.5t-61.5 -166.5q0 -66 21.5 -105t53.5 -60.5t69.5 -30.5t70.5 -11q45 -4 94.5 -14.5t91.5 -40t69.5 -82t27.5 -140.5q0 -78 -22.5 -132 t-60.5 -90t-90 -52t-112 -16q-131 0 -274 51v75q74 -27 142.5 -41t131.5 -14q45 0 84 12.5t67.5 39t45 68.5t16.5 99q0 66 -21.5 105t-53 60.5t-69.5 29.5t-71 12q-45 4 -94 14.5t-91 40t-68.5 82t-26.5 140.5z" />
<glyph unicode="t" horiz-adv-x="573" d="M49 952v72h137v199h72v-199h258v-72h-258v-688q0 -111 66.5 -162t162.5 -51v-71q-63 0 -117.5 16t-95.5 52t-64.5 89t-23.5 127v688h-137z" />
<glyph unicode="u" d="M111 264v760h69v-760q0 -111 61.5 -162t151.5 -51q96 0 213 35v938h72v-1024h-72v33q-59 -23 -115.5 -38t-97.5 -15q-59 0 -110.5 16t-89 52t-60 89t-22.5 127z" />
<glyph unicode="v" horiz-adv-x="655" d="M4 1024h74l246 -870l243 870h76l-287 -1024h-67z" />
<glyph unicode="w" horiz-adv-x="1015" d="M8 1024h76l209 -877l176 598h63l181 -593l205 872h75l-243 -1024h-70l-180 596q-43 -147 -89 -298t-87 -298h-70z" />
<glyph unicode="x" horiz-adv-x="729" d="M37 0l280 512l-280 512h82l239 -438l240 438h80l-281 -512l283 -512h-80l-242 438l-239 -438h-82z" />
<glyph unicode="y" d="M111 264v760h69v-760q0 -111 61.5 -162t151.5 -51q96 0 213 35v938h72v-1255q0 -74 -22.5 -127.5t-60.5 -89t-90 -52t-112 -16.5q-68 0 -136.5 13.5t-137.5 35.5v78q74 -27 142.5 -41t131.5 -14q90 0 151.5 51t61.5 162v264q-59 -23 -115.5 -38t-97.5 -15 q-59 0 -110.5 16t-89 52t-60 89t-22.5 127z" />
<glyph unicode="z" d="M111 0v59l481 893h-481v72h567v-59l-483 -893h483v-72h-567z" />
<glyph unicode="{" horiz-adv-x="702" d="M100 711l142 141q29 29 40 57.5t11 65.5v311q0 162 75.5 257t215.5 95v-69q-109 0 -164 -77t-55 -206v-328q0 -47 -14.5 -80.5t-45.5 -66.5l-100 -100l100 -103q31 -31 45.5 -64.5t14.5 -80.5v-328q0 -129 55 -205.5t164 -76.5v-72q-139 0 -215 96t-76 258v311 q0 72 -51 123z" />
<glyph unicode="|" horiz-adv-x="286" d="M106 -199v1819h72v-1819h-72z" />
<glyph unicode="}" horiz-adv-x="702" d="M109 -147q109 0 164 76.5t55 205.5v328q0 47 14 81t45 64l100 103l-100 100q-31 33 -45 66.5t-14 80.5v328q0 129 -55.5 206t-163.5 77v69q139 0 214.5 -95t75.5 -257v-311q0 -37 11.5 -65.5t40.5 -57.5l141 -141l-141 -142q-29 -29 -40.5 -57.5t-11.5 -65.5v-311 q0 -162 -75.5 -258t-214.5 -96v72z" />
<glyph unicode="~" horiz-adv-x="835" d="M111 598q0 68 14 114t38.5 73.5t56.5 40t67 12.5q49 0 82.5 -33t64.5 -70q25 -31 49.5 -53.5t53.5 -22.5q45 0 74.5 36t29.5 132h72q0 -68 -15.5 -113.5t-40 -73.5t-56.5 -40t-64 -12q-55 0 -98.5 38t-71.5 74q-23 25 -42.5 45.5t-37.5 20.5q-45 0 -75 -36t-30 -132h-71z " />
<glyph unicode="&#xa1;" horiz-adv-x="286" d="M106 -397v1024h72v-1024h-72zM106 795v229h72v-229h-72z" />
<glyph unicode="&#xa2;" horiz-adv-x="757" d="M109 264v496q0 137 71.5 204.5t177.5 77.5v181h70v-181q43 -4 97.5 -16t111.5 -33v-75q-59 23 -113.5 36t-95.5 17v-918q41 4 95.5 17.5t113.5 35.5v-75q-57 -20 -111.5 -32.5t-97.5 -16.5v-181h-70v181q-106 10 -177.5 77.5t-71.5 204.5zM180 264q0 -100 50.5 -150.5 t127.5 -60.5v918q-78 -10 -128 -60.5t-50 -150.5v-496z" />
<glyph unicode="&#xa3;" horiz-adv-x="901" d="M51 674v71h158v381q0 80 24.5 139.5t67.5 98.5t100.5 57.5t122.5 18.5q137 0 273 -49v-78q-150 57 -273 57q-51 0 -95 -14.5t-77 -43t-52 -75.5t-19 -111v-381h299v-71h-299v-602h557v-72h-629v674h-158z" />
<glyph unicode="&#xa4;" horiz-adv-x="634" d="M100 549l80 80q-23 33 -22 82q0 18 7 41.5t15 40.5l-80 77l52 54l79 -80q18 12 39 16t43 4q25 0 44.5 -4t35.5 -16l80 80l51 -54l-78 -77q8 -16 14.5 -39t6.5 -43q0 -45 -21 -80l78 -82l-51 -51l-80 80q-14 -8 -37.5 -15.5t-42.5 -7.5q-49 0 -82 23l-79 -80zM229 711 q0 -35 23.5 -59.5t60.5 -24.5q35 0 58.5 24.5t23.5 59.5t-23.5 59.5t-58.5 24.5q-37 0 -60.5 -24.5t-23.5 -59.5z" />
<glyph unicode="&#xa5;" horiz-adv-x="860" d="M45 1421h76l303 -803l299 803h76l-340 -911v-2h229v-72h-229v-166h229v-71h-229v-199h-72v199h-227v71h227v166h-227v72h227v8z" />
<glyph unicode="&#xa6;" horiz-adv-x="286" d="M106 -199v826h72v-826h-72zM106 795v825h72v-825h-72z" />
<glyph unicode="&#xa7;" d="M111 713q0 96 35.5 157.5t95.5 94.5q-53 25 -92 81t-39 162q0 76 22.5 131.5t60 91t89 52t110.5 16.5q47 0 111.5 -13t132.5 -38v-76q-72 27 -137.5 41t-106.5 14q-90 0 -151.5 -52t-61.5 -167q0 -66 21.5 -104.5t53.5 -60t69.5 -30.5t70.5 -12h15v-2q43 -4 91 -16 t87 -42t64.5 -81t25.5 -135q0 -98 -37 -159.5t-98 -94.5q55 -27 95 -82t40 -162q0 -76 -22.5 -130t-60.5 -90t-90 -52t-112 -16q-68 0 -136.5 13t-137.5 36v78q74 -27 142.5 -41.5t131.5 -14.5q90 0 151.5 51.5t61.5 165.5q0 66 -21.5 106t-53 61.5t-69.5 28.5t-71 11h-14v2 q-43 4 -90 16.5t-86 42t-64.5 82t-25.5 136.5zM180 713q0 -66 21.5 -105t53.5 -60.5t69.5 -30.5t70.5 -11q88 4 149.5 56t61.5 163q0 63 -20.5 102t-51 60.5t-67.5 30t-70 12.5q-45 -2 -85 -15.5t-68.5 -40t-46 -66.5t-17.5 -95z" />
<glyph unicode="&#xa8;" horiz-adv-x="573" d="M109 1190v231h71v-231h-71zM385 1190v231h72v-231h-72z" />
<glyph unicode="&#xa9;" horiz-adv-x="860" d="M111 293v833q0 80 24.5 139.5t67.5 98.5t99 57.5t122 18.5q63 0 120.5 -18.5t100.5 -57.5t67.5 -98.5t24.5 -139.5v-833q0 -80 -24.5 -139.5t-67.5 -97.5t-100.5 -57t-120.5 -19q-66 0 -122 19t-99 57t-67.5 97.5t-24.5 139.5zM182 293q0 -127 70 -184.5t172 -57.5 q51 0 95 14.5t77 43t51.5 74.5t18.5 110v833q0 129 -70 186.5t-172 57.5t-172 -57.5t-70 -186.5v-833zM242 461v500q0 102 56 148t138 46t170 -33v-75q-47 16 -92 26t-78 10q-53 0 -88 -28.5t-35 -93.5v-500q0 -66 35 -94.5t88 -28.5q33 0 78 10t92 27v-78 q-41 -14 -84 -22.5t-86 -8.5q-82 0 -138 46t-56 149z" />
<glyph unicode="&#xab;" horiz-adv-x="923" d="M100 711l375 374l51 -51l-323 -323l323 -324l-51 -51zM387 711l375 374l51 -51l-323 -323l323 -324l-51 -51z" />
<glyph unicode="&#xac;" horiz-adv-x="757" d="M109 674v71h528v-299h-72v228h-456z" />
<glyph unicode="&#xad;" horiz-adv-x="757" d="M109 674v71h528v-71h-528z" />
<glyph unicode="&#xae;" horiz-adv-x="860" d="M111 293v833q0 80 24.5 139.5t67.5 98.5t99 57.5t122 18.5q63 0 120.5 -18.5t100.5 -57.5t67.5 -98.5t24.5 -139.5v-833q0 -80 -24.5 -139.5t-67.5 -97.5t-100.5 -57t-120.5 -19q-66 0 -122 19t-99 57t-67.5 97.5t-24.5 139.5zM182 293q0 -127 70 -184.5t172 -57.5 q51 0 95 14.5t77 43t51.5 74.5t18.5 110v833q0 129 -70 186.5t-172 57.5t-172 -57.5t-70 -186.5v-833zM240 279v864h198v-2q76 -8 127 -54.5t51 -138.5v-166q0 -86 -36.5 -127t-83.5 -55l151 -321h-74l-145 309h-4h-113v-309h-71zM311 659h109q18 0 40.5 5.5t41 19.5 t31 37.5t12.5 60.5v166q0 66 -40 94.5t-99 28.5h-95v-412z" />
<glyph unicode="&#xaf;" horiz-adv-x="778" d="M109 1270v71h548v-71h-548z" />
<glyph unicode="&#xb1;" horiz-adv-x="757" d="M109 277v71h528v-71h-528zM109 674v71h229v230h72v-230h227v-71h-227v-228h-72v228h-229z" />
<glyph unicode="&#xb4;" horiz-adv-x="606" d="M100 1210l351 246l47 -59l-353 -246z" />
<glyph unicode="&#xb8;" horiz-adv-x="518" d="M106 -268q39 -14 80 -24.5t66 -10.5q35 0 57.5 19.5t22.5 60.5q0 47 -28 61.5t-56 14.5h-74l68 180h73l-39 -109q23 -2 45.5 -9t41 -24.5t29.5 -44t11 -69.5q0 -80 -44 -116t-107 -36t-146 29v78z" />
<glyph unicode="&#xbb;" horiz-adv-x="923" d="M100 387l324 324l-324 323l52 51l374 -374l-374 -375zM387 387l324 324l-324 323l52 51l374 -374l-374 -375z" />
<glyph unicode="&#xbf;" horiz-adv-x="819" d="M111 35q0 96 24.5 154.5t59 91t71.5 46t62 19.5l18 4q12 2 39 13.5t53.5 38t47 72.5t20.5 118v115h72v-115q0 -92 -27 -151.5t-62.5 -93.5t-72.5 -48t-58 -18q-4 -2 -8 -2l-20 -7q-20 -6 -46 -16t-48.5 -34.5t-38 -68.5t-15.5 -118v-137q0 -129 70 -186.5t172 -57.5 q123 0 272 57v-78q-135 -49 -272 -49q-66 0 -123 18.5t-99 57.5t-66.5 98.5t-24.5 139.5v137zM506 834v190h72v-190h-72z" />
<glyph unicode="&#xc0;" horiz-adv-x="860" d="M45 0l344 1434h72l342 -1434h-78l-80 340h-442l-82 -340h-76zM145 1807l45 59l353 -246l-47 -59zM219 412h408l-201 858z" />
<glyph unicode="&#xc1;" horiz-adv-x="860" d="M45 0l344 1434h72l342 -1434h-78l-80 340h-442l-82 -340h-76zM219 412h408l-201 858zM309 1620l351 246l47 -59l-353 -246z" />
<glyph unicode="&#xc2;" horiz-adv-x="860" d="M45 0l344 1434h72l342 -1434h-78l-80 340h-442l-82 -340h-76zM172 1612l252 252l254 -252l-55 -53l-199 199l-196 -199zM219 412h408l-201 858z" />
<glyph unicode="&#xc3;" horiz-adv-x="860" d="M45 0l344 1434h72l342 -1434h-78l-80 340h-442l-82 -340h-76zM203 1600q0 137 35 189.5t102 52.5q51 0 71.5 -34t35.5 -73q10 -29 23.5 -51.5t39.5 -22.5q41 0 53.5 36t12.5 134h71q0 -135 -33.5 -187t-103.5 -52q-31 0 -51.5 10t-34.5 27.5t-23.5 38t-17.5 40.5 q-8 23 -17.5 42.5t-25.5 19.5q-41 0 -53 -36t-12 -134h-72zM219 412h408l-201 858z" />
<glyph unicode="&#xc4;" horiz-adv-x="860" d="M45 0l344 1434h72l342 -1434h-78l-80 340h-442l-82 -340h-76zM219 412h408l-201 858zM252 1600v231h71v-231h-71zM528 1600v231h72v-231h-72z" />
<glyph unicode="&#xc5;" horiz-adv-x="860" d="M45 0l344 1434h72l342 -1434h-78l-80 340h-442l-82 -340h-76zM219 412h408l-201 858zM273 1717q0 63 44 108t109 45q66 0 111 -45t45 -108q0 -66 -45 -111t-111 -45t-109.5 45t-43.5 111zM342 1717q0 -37 24.5 -60.5t59.5 -23.5t59.5 23.5t24.5 60.5q0 35 -24.5 58.5 t-59.5 23.5t-59.5 -23.5t-24.5 -58.5z" />
<glyph unicode="&#xc6;" horiz-adv-x="1001" d="M45 0l344 1434h533v-72h-361v-608h299v-74h-299v-608h361v-72h-435v340h-284l-82 -340h-76zM219 412h268v950h-38z" />
<glyph unicode="&#xc7;" horiz-adv-x="778" d="M109 297v840q0 82 25.5 141t68.5 98t100 58.5t123 19.5q133 0 276 -51v-78q-74 29 -143.5 43t-132.5 14q-51 0 -96 -14t-78 -44t-52.5 -77t-19.5 -110v-840q0 -66 19.5 -112t52.5 -75.5t78 -44t96 -14.5q63 0 133 14.5t143 43.5v-78q-117 -43 -233 -49l-20 -58 q23 -2 46 -10t41.5 -24.5t30 -44t11.5 -68.5q0 -82 -44.5 -119t-107.5 -37q-68 0 -147 31v78q39 -14 79.5 -25.5t67.5 -11.5q33 0 56.5 20.5t23.5 63.5q0 47 -28.5 61.5t-55.5 14.5h-74l47 129q-59 4 -111.5 24.5t-91 59t-61 96t-22.5 135.5z" />
<glyph unicode="&#xc8;" horiz-adv-x="716" d="M109 0v1434h553v-72h-482v-608h422v-74h-422v-608h482v-72h-553zM155 1807l45 59l353 -246l-47 -59z" />
<glyph unicode="&#xc9;" horiz-adv-x="716" d="M109 0v1434h553v-72h-482v-608h422v-74h-422v-608h482v-72h-553zM155 1620l351 246l47 -59l-353 -246z" />
<glyph unicode="&#xca;" horiz-adv-x="716" d="M100 1612l252 252l254 -252l-55 -53l-199 199l-196 -199zM109 0v1434h553v-72h-482v-608h422v-74h-422v-608h482v-72h-553z" />
<glyph unicode="&#xcb;" horiz-adv-x="716" d="M109 0v1434h553v-72h-482v-608h422v-74h-422v-608h482v-72h-553zM181 1600v231h71v-231h-71zM457 1600v231h72v-231h-72z" />
<glyph unicode="&#xcc;" horiz-adv-x="286" d="M-58 1807l45 59l353 -246l-47 -59zM106 0v1434h72v-1434h-72z" />
<glyph unicode="&#xcd;" horiz-adv-x="286" d="M-58 1620l351 246l47 -59l-353 -246zM106 0v1434h72v-1434h-72z" />
<glyph unicode="&#xce;" horiz-adv-x="286" d="M-113 1612l252 252l254 -252l-55 -53l-199 199l-196 -199zM106 0v1434h72v-1434h-72z" />
<glyph unicode="&#xcf;" horiz-adv-x="286" d="M-32 1600v231h71v-231h-71zM106 0v1434h72v-1434h-72zM244 1600v231h72v-231h-72z" />
<glyph unicode="&#xd0;" horiz-adv-x="929" d="M49 680v74h148v680h297q66 0 123 -19.5t100 -58.5t67.5 -98.5t24.5 -139.5v-803q0 -80 -24.5 -139t-67.5 -98t-100.5 -58.5t-122.5 -19.5h-297v680h-148zM270 72h224q104 0 173.5 57t69.5 186v803q0 129 -69.5 186.5t-173.5 57.5h-224v-608h312v-74h-312v-608z" />
<glyph unicode="&#xd1;" horiz-adv-x="839" d="M109 0v1434h67l473 -1213v1213h72v-1434h-66l-475 1212v-1212h-71zM193 1600q0 137 35 189.5t102 52.5q51 0 71.5 -34t35.5 -73q10 -29 23.5 -51.5t39.5 -22.5q41 0 53.5 36t12.5 134h71q0 -135 -33.5 -187t-103.5 -52q-31 0 -51.5 10t-34.5 27.5t-23.5 38t-17.5 40.5 q-8 23 -17.5 42.5t-25.5 19.5q-41 0 -53 -36t-12 -134h-72z" />
<glyph unicode="&#xd2;" horiz-adv-x="860" d="M109 297v840q0 82 25.5 141t68.5 98t100 58.5t123 19.5t123 -19.5t100 -58.5t67.5 -98t24.5 -141v-840q0 -82 -24.5 -141.5t-67.5 -98.5t-100 -58t-123 -19t-123 19t-100 58t-68.5 98.5t-25.5 141.5zM145 1807l45 59l353 -246l-47 -59zM180 297q0 -66 19.5 -112 t52.5 -75.5t78 -44t96 -14.5t95 14.5t77 44t52.5 75.5t19.5 112v840q0 63 -19.5 110t-52.5 77t-77 44t-95 14t-96 -14t-78 -44t-52.5 -77t-19.5 -110v-840z" />
<glyph unicode="&#xd3;" horiz-adv-x="860" d="M109 297v840q0 82 25.5 141t68.5 98t100 58.5t123 19.5t123 -19.5t100 -58.5t67.5 -98t24.5 -141v-840q0 -82 -24.5 -141.5t-67.5 -98.5t-100 -58t-123 -19t-123 19t-100 58t-68.5 98.5t-25.5 141.5zM180 297q0 -66 19.5 -112t52.5 -75.5t78 -44t96 -14.5t95 14.5t77 44 t52.5 75.5t19.5 112v840q0 63 -19.5 110t-52.5 77t-77 44t-95 14t-96 -14t-78 -44t-52.5 -77t-19.5 -110v-840zM309 1620l351 246l47 -59l-353 -246z" />
<glyph unicode="&#xd4;" horiz-adv-x="860" d="M109 297v840q0 82 25.5 141t68.5 98t100 58.5t123 19.5t123 -19.5t100 -58.5t67.5 -98t24.5 -141v-840q0 -82 -24.5 -141.5t-67.5 -98.5t-100 -58t-123 -19t-123 19t-100 58t-68.5 98.5t-25.5 141.5zM172 1612l252 252l254 -252l-55 -53l-199 199l-196 -199zM180 297 q0 -66 19.5 -112t52.5 -75.5t78 -44t96 -14.5t95 14.5t77 44t52.5 75.5t19.5 112v840q0 63 -19.5 110t-52.5 77t-77 44t-95 14t-96 -14t-78 -44t-52.5 -77t-19.5 -110v-840z" />
<glyph unicode="&#xd5;" horiz-adv-x="860" d="M109 297v840q0 82 25.5 141t68.5 98t100 58.5t123 19.5t123 -19.5t100 -58.5t67.5 -98t24.5 -141v-840q0 -82 -24.5 -141.5t-67.5 -98.5t-100 -58t-123 -19t-123 19t-100 58t-68.5 98.5t-25.5 141.5zM180 297q0 -66 19.5 -112t52.5 -75.5t78 -44t96 -14.5t95 14.5t77 44 t52.5 75.5t19.5 112v840q0 63 -19.5 110t-52.5 77t-77 44t-95 14t-96 -14t-78 -44t-52.5 -77t-19.5 -110v-840zM203 1600q0 137 35 189.5t102 52.5q51 0 71.5 -34t35.5 -73q10 -29 23.5 -51.5t39.5 -22.5q41 0 53.5 36t12.5 134h71q0 -135 -33.5 -187t-103.5 -52 q-31 0 -51.5 10t-34.5 27.5t-23.5 38t-17.5 40.5q-8 23 -17.5 42.5t-25.5 19.5q-41 0 -53 -36t-12 -134h-72z" />
<glyph unicode="&#xd6;" horiz-adv-x="860" d="M109 297v840q0 82 25.5 141t68.5 98t100 58.5t123 19.5t123 -19.5t100 -58.5t67.5 -98t24.5 -141v-840q0 -82 -24.5 -141.5t-67.5 -98.5t-100 -58t-123 -19t-123 19t-100 58t-68.5 98.5t-25.5 141.5zM180 297q0 -66 19.5 -112t52.5 -75.5t78 -44t96 -14.5t95 14.5t77 44 t52.5 75.5t19.5 112v840q0 63 -19.5 110t-52.5 77t-77 44t-95 14t-96 -14t-78 -44t-52.5 -77t-19.5 -110v-840zM252 1600v231h71v-231h-71zM528 1600v231h72v-231h-72z" />
<glyph unicode="&#xd7;" horiz-adv-x="634" d="M100 549l160 160l-160 161l52 54l159 -164l162 164l51 -54l-162 -161l162 -160l-51 -51l-162 159l-159 -159z" />
<glyph unicode="&#xd8;" horiz-adv-x="860" d="M57 10l72 156q-10 29 -15 60.5t-5 70.5v840q0 82 25.5 141t68.5 98t100 58.5t123 19.5q78 0 143.5 -26.5t108.5 -81.5l53 112l64 -33l-74 -159q10 -29 15 -60.5t5 -68.5v-840q0 -82 -24.5 -141.5t-67.5 -98.5t-100 -58t-123 -19q-78 0 -144.5 26.5t-111.5 83.5l-53 -115z M180 274l461 992q-31 59 -87 87.5t-128 28.5q-51 0 -96 -14t-78 -44t-52.5 -77t-19.5 -110v-840v-23zM207 168q31 -59 89 -88t130 -29q51 0 95 14.5t77 44t52.5 75.5t19.5 112v840q0 4 -1 9t-1 9z" />
<glyph unicode="&#xd9;" horiz-adv-x="839" d="M109 297v1137h71v-1137q0 -129 66.5 -187.5t169.5 -58.5q100 0 166.5 58.5t66.5 187.5v1137h72v-1137q0 -82 -22.5 -141.5t-63.5 -98.5t-97.5 -58t-121.5 -19q-66 0 -122 19t-97 58t-64.5 98.5t-23.5 141.5zM155 1807l45 59l353 -246l-47 -59z" />
<glyph unicode="&#xda;" horiz-adv-x="839" d="M109 297v1137h71v-1137q0 -129 66.5 -187.5t169.5 -58.5q100 0 166.5 58.5t66.5 187.5v1137h72v-1137q0 -82 -22.5 -141.5t-63.5 -98.5t-97.5 -58t-121.5 -19q-66 0 -122 19t-97 58t-64.5 98.5t-23.5 141.5zM299 1620l351 246l47 -59l-353 -246z" />
<glyph unicode="&#xdb;" horiz-adv-x="839" d="M109 297v1137h71v-1137q0 -129 66.5 -187.5t169.5 -58.5q100 0 166.5 58.5t66.5 187.5v1137h72v-1137q0 -82 -22.5 -141.5t-63.5 -98.5t-97.5 -58t-121.5 -19q-66 0 -122 19t-97 58t-64.5 98.5t-23.5 141.5zM161 1612l252 252l254 -252l-55 -53l-199 199l-196 -199z" />
<glyph unicode="&#xdc;" horiz-adv-x="839" d="M109 297v1137h71v-1137q0 -129 66.5 -187.5t169.5 -58.5q100 0 166.5 58.5t66.5 187.5v1137h72v-1137q0 -82 -22.5 -141.5t-63.5 -98.5t-97.5 -58t-121.5 -19q-66 0 -122 19t-97 58t-64.5 98.5t-23.5 141.5zM242 1600v231h71v-231h-71zM518 1600v231h72v-231h-72z" />
<glyph unicode="&#xdd;" horiz-adv-x="860" d="M43 1434h76l307 -809l301 809h78l-344 -920v-514h-72v518zM227 1620l351 246l47 -59l-353 -246z" />
<glyph unicode="&#xde;" horiz-adv-x="757" d="M109 0v1434h71v-260h185q66 0 123 -19.5t100 -58.5t68.5 -98.5t25.5 -141.5v-278q0 -104 -33 -165t-81 -93.5t-102 -44t-99 -15.5h-187v-260h-71zM180 332h182q33 2 76 10t81 32.5t64.5 73t26.5 130.5v278q0 66 -19.5 112t-52 75.5t-77.5 44t-96 14.5h-185v-770z" />
<glyph unicode="&#xdf;" horiz-adv-x="860" d="M111 0v1227q0 80 24.5 139t67.5 97t99 57.5t122 19.5q63 0 120.5 -19.5t100.5 -57.5t67.5 -97t24.5 -139v-140q0 -123 -47 -186t-112 -92q33 -14 61.5 -36.5t50 -55.5t34.5 -78t13 -107v-219q0 -80 -25.5 -139t-70.5 -98t-105.5 -57.5t-127.5 -18.5v72q53 0 100 14t82 43 t55.5 75t20.5 109v219q0 76 -24 121t-59.5 71t-77.5 36t-77 14q-6 -2 -20 -2v76q6 -2 20 -2q35 2 77 12t77.5 35t59.5 71t24 123v140q0 63 -18.5 109t-51.5 75t-77 43t-95 14q-102 0 -172 -57t-70 -184v-1227h-71z" />
<glyph unicode="&#xe0;" d="M109 264h2v80q0 74 22.5 127t60 88t89 51.5t110.5 16.5h213v133q0 55 -16.5 95t-45 66.5t-66.5 39t-81 12.5q-47 0 -111.5 -14.5t-135.5 -40.5v75q143 51 249 51q55 0 106.5 -16t89.5 -52t60.5 -89t22.5 -127v-760h-72v29q-59 -20 -115.5 -34.5t-97.5 -14.5 q-59 0 -111.5 16t-90 52t-60 89t-22.5 127zM180 264q0 -111 61.5 -162t151.5 -51q96 0 213 35v469h-213q-90 0 -151.5 -51t-61.5 -160v-80zM196 1397l45 59l353 -246l-47 -59z" />
<glyph unicode="&#xe1;" d="M109 264h2v80q0 74 22.5 127t60 88t89 51.5t110.5 16.5h213v133q0 55 -16.5 95t-45 66.5t-66.5 39t-81 12.5q-47 0 -111.5 -14.5t-135.5 -40.5v75q143 51 249 51q55 0 106.5 -16t89.5 -52t60.5 -89t22.5 -127v-760h-72v29q-59 -20 -115.5 -34.5t-97.5 -14.5 q-59 0 -111.5 16t-90 52t-60 89t-22.5 127zM180 264q0 -111 61.5 -162t151.5 -51q96 0 213 35v469h-213q-90 0 -151.5 -51t-61.5 -160v-80zM196 1210l351 246l47 -59l-353 -246z" />
<glyph unicode="&#xe2;" d="M109 264h2v80q0 74 22.5 127t60 88t89 51.5t110.5 16.5h213v133q0 55 -16.5 95t-45 66.5t-66.5 39t-81 12.5q-47 0 -111.5 -14.5t-135.5 -40.5v75q143 51 249 51q55 0 106.5 -16t89.5 -52t60.5 -89t22.5 -127v-760h-72v29q-59 -20 -115.5 -34.5t-97.5 -14.5 q-59 0 -111.5 16t-90 52t-60 89t-22.5 127zM141 1202l252 252l254 -252l-55 -53l-199 199l-196 -199zM180 264q0 -111 61.5 -162t151.5 -51q96 0 213 35v469h-213q-90 0 -151.5 -51t-61.5 -160v-80z" />
<glyph unicode="&#xe3;" d="M109 264h2v80q0 74 22.5 127t60 88t89 51.5t110.5 16.5h213v133q0 55 -16.5 95t-45 66.5t-66.5 39t-81 12.5q-47 0 -111.5 -14.5t-135.5 -40.5v75q143 51 249 51q55 0 106.5 -16t89.5 -52t60.5 -89t22.5 -127v-760h-72v29q-59 -20 -115.5 -34.5t-97.5 -14.5 q-59 0 -111.5 16t-90 52t-60 89t-22.5 127zM172 1190q0 137 35 189.5t102 52.5q51 0 71.5 -34t35.5 -73q10 -29 23.5 -51.5t39.5 -22.5q41 0 53.5 36t12.5 134h71q0 -135 -33.5 -187t-103.5 -52q-31 0 -51.5 10t-34.5 27.5t-23.5 38t-17.5 40.5q-8 23 -17.5 42.5t-25.5 19.5 q-41 0 -53 -36t-12 -134h-72zM180 264q0 -111 61.5 -162t151.5 -51q96 0 213 35v469h-213q-90 0 -151.5 -51t-61.5 -160v-80z" />
<glyph unicode="&#xe4;" d="M109 264h2v80q0 74 22.5 127t60 88t89 51.5t110.5 16.5h213v133q0 55 -16.5 95t-45 66.5t-66.5 39t-81 12.5q-47 0 -111.5 -14.5t-135.5 -40.5v75q143 51 249 51q55 0 106.5 -16t89.5 -52t60.5 -89t22.5 -127v-760h-72v29q-59 -20 -115.5 -34.5t-97.5 -14.5 q-59 0 -111.5 16t-90 52t-60 89t-22.5 127zM180 264q0 -111 61.5 -162t151.5 -51q96 0 213 35v469h-213q-90 0 -151.5 -51t-61.5 -160v-80zM222 1190v231h71v-231h-71zM498 1190v231h72v-231h-72z" />
<glyph unicode="&#xe5;" d="M109 264h2v80q0 74 22.5 127t60 88t89 51.5t110.5 16.5h213v133q0 55 -16.5 95t-45 66.5t-66.5 39t-81 12.5q-47 0 -111.5 -14.5t-135.5 -40.5v75q143 51 249 51q55 0 106.5 -16t89.5 -52t60.5 -89t22.5 -127v-760h-72v29q-59 -20 -115.5 -34.5t-97.5 -14.5 q-59 0 -111.5 16t-90 52t-60 89t-22.5 127zM180 264q0 -111 61.5 -162t151.5 -51q96 0 213 35v469h-213q-90 0 -151.5 -51t-61.5 -160v-80zM242 1307q0 63 44 108t109 45q66 0 111 -45t45 -108q0 -66 -45 -111t-111 -45t-109.5 45t-43.5 111zM311 1307q0 -37 24.5 -60.5 t59.5 -23.5t59.5 23.5t24.5 60.5q0 35 -24.5 58.5t-59.5 23.5t-59.5 -23.5t-24.5 -58.5z" />
<glyph unicode="&#xe6;" horiz-adv-x="1310" d="M115 264v80q0 74 22.5 127t60.5 88t89 51.5t110 16.5h213v133q0 111 -61.5 162t-151.5 51q-41 0 -106.5 -14.5t-136.5 -40.5v75q68 25 132 38t111 13q90 0 154.5 -38.5t93.5 -118.5q29 80 93.5 118.5t154.5 38.5q59 0 111.5 -16t90.5 -52t60.5 -89t22.5 -127v-283h-496 v-213q0 -111 60.5 -162t150.5 -51q41 0 106.5 14.5t139.5 40.5v-75q-70 -25 -134.5 -38t-111.5 -13q-92 0 -157.5 39.5t-94.5 127.5q-29 -86 -91.5 -126.5t-152.5 -40.5q-59 0 -110 16t-89 52t-60.5 89t-22.5 127zM184 264q0 -111 61.5 -162t151.5 -51q86 0 147.5 52.5 t65.5 164.5v287h-213q-90 0 -151.5 -51t-61.5 -160v-80zM682 547h424v213q0 111 -61.5 162t-151.5 51t-150.5 -51.5t-60.5 -161.5v-213z" />
<glyph unicode="&#xe7;" horiz-adv-x="757" d="M109 264v496q0 74 22.5 127t60 89t90 52t111.5 16q47 0 111.5 -13t132.5 -38v-75q-72 27 -137.5 41t-106.5 14q-90 0 -151.5 -51.5t-61.5 -161.5v-496q0 -111 61.5 -162t151.5 -51q41 0 106.5 14.5t137.5 40.5v-75q-61 -23 -119.5 -35t-105.5 -16l-19 -56q23 -2 45.5 -9 t41 -24.5t29.5 -44t11 -69.5q0 -80 -44 -116t-107 -36t-144 29v78q37 -14 78 -24.5t66 -10.5q35 0 57.5 19.5t22.5 60.5q0 47 -28 61.5t-56 14.5h-72l49 131q-100 12 -166.5 79.5t-66.5 200.5z" />
<glyph unicode="&#xe8;" d="M111 264v496q0 74 22.5 127t60 89t89 52t110.5 16t111.5 -16t90.5 -52t60.5 -89t22.5 -127v-283h-498v-213q0 -111 61.5 -162t151.5 -51q41 0 106.5 14.5t137.5 40.5v-75q-68 -25 -132.5 -38t-111.5 -13q-59 0 -110.5 16t-89 52t-60 89t-22.5 127zM155 1397l45 59 l353 -246l-47 -59zM180 547h426v213q0 111 -61.5 162t-151.5 51t-151.5 -51.5t-61.5 -161.5v-213z" />
<glyph unicode="&#xe9;" d="M111 264v496q0 74 22.5 127t60 89t89 52t110.5 16t111.5 -16t90.5 -52t60.5 -89t22.5 -127v-283h-498v-213q0 -111 61.5 -162t151.5 -51q41 0 106.5 14.5t137.5 40.5v-75q-68 -25 -132.5 -38t-111.5 -13q-59 0 -110.5 16t-89 52t-60 89t-22.5 127zM180 547h426v213 q0 111 -61.5 162t-151.5 51t-151.5 -51.5t-61.5 -161.5v-213zM237 1210l351 246l47 -59l-353 -246z" />
<glyph unicode="&#xea;" d="M111 264v496q0 74 22.5 127t60 89t89 52t110.5 16t111.5 -16t90.5 -52t60.5 -89t22.5 -127v-283h-498v-213q0 -111 61.5 -162t151.5 -51q41 0 106.5 14.5t137.5 40.5v-75q-68 -25 -132.5 -38t-111.5 -13q-59 0 -110.5 16t-89 52t-60 89t-22.5 127zM141 1202l252 252 l254 -252l-55 -53l-199 199l-196 -199zM180 547h426v213q0 111 -61.5 162t-151.5 51t-151.5 -51.5t-61.5 -161.5v-213z" />
<glyph unicode="&#xeb;" d="M111 264v496q0 74 22.5 127t60 89t89 52t110.5 16t111.5 -16t90.5 -52t60.5 -89t22.5 -127v-283h-498v-213q0 -111 61.5 -162t151.5 -51q41 0 106.5 14.5t137.5 40.5v-75q-68 -25 -132.5 -38t-111.5 -13q-59 0 -110.5 16t-89 52t-60 89t-22.5 127zM180 547h426v213 q0 111 -61.5 162t-151.5 51t-151.5 -51.5t-61.5 -161.5v-213zM222 1190v231h71v-231h-71zM498 1190v231h72v-231h-72z" />
<glyph unicode="&#xec;" horiz-adv-x="286" d="M-58 1397l45 59l353 -246l-47 -59zM106 0v1024h72v-1024h-72z" />
<glyph unicode="&#xed;" horiz-adv-x="286" d="M-58 1210l351 246l47 -59l-353 -246zM106 0v1024h72v-1024h-72z" />
<glyph unicode="&#xee;" horiz-adv-x="286" d="M-113 1202l252 252l254 -252l-55 -53l-199 199l-196 -199zM106 0v1024h72v-1024h-72z" />
<glyph unicode="&#xef;" horiz-adv-x="286" d="M-32 1190v231h71v-231h-71zM106 0v1024h72v-1024h-72zM244 1190v231h72v-231h-72z" />
<glyph unicode="&#xf0;" d="M111 264v496q0 74 22.5 127t60 89t90 52t111.5 16q41 0 94.5 -15t110.5 -38q-12 47 -28.5 94.5t-39.5 98.5l-30 71l-217 -77l-25 69l215 78l-78 195h76l68 -172l217 79l24 -69l-215 -78l27 -63q45 -109 64.5 -211.5t19.5 -214.5v-543h-2q-10 -139 -90 -203.5t-191 -64.5 q-59 0 -111.5 16t-90 52t-60 89t-22.5 127zM182 264q0 -111 60.5 -162t152.5 -51q90 0 150.5 51.5t60.5 161.5v557h17q-2 31 -4.5 58.5t-6.5 56.5q-59 16 -113.5 26.5t-103.5 10.5q-92 0 -152.5 -51.5t-60.5 -161.5v-496z" />
<glyph unicode="&#xf1;" d="M111 0v1024h69v-35q57 23 114.5 39t98.5 16q59 0 111.5 -16t90.5 -52t60.5 -89t22.5 -127v-760h-72v760q0 111 -61.5 162t-151.5 51q-100 0 -213 -37v-936h-69zM178 1190q0 137 35 189.5t102 52.5q51 0 71.5 -34t35.5 -73q10 -29 23.5 -51.5t39.5 -22.5q41 0 53.5 36 t12.5 134h71q0 -135 -33.5 -187t-103.5 -52q-31 0 -51.5 10t-34.5 27.5t-23.5 38t-17.5 40.5q-8 23 -17.5 42.5t-25.5 19.5q-41 0 -53 -36t-12 -134h-72z" />
<glyph unicode="&#xf2;" d="M111 264v496q0 74 22.5 127t60 89t89 52t110.5 16t111.5 -16t90.5 -52t60.5 -89t22.5 -127v-496q0 -74 -22.5 -127t-60.5 -89t-90 -52t-112 -16q-59 0 -110.5 16t-89 52t-60 89t-22.5 127zM135 1397l45 59l353 -246l-47 -59zM180 264q0 -111 61.5 -162t151.5 -51 t151.5 51.5t61.5 161.5v496q0 111 -61.5 162t-151.5 51t-151.5 -51.5t-61.5 -161.5v-496z" />
<glyph unicode="&#xf3;" d="M111 264v496q0 74 22.5 127t60 89t89 52t110.5 16t111.5 -16t90.5 -52t60.5 -89t22.5 -127v-496q0 -74 -22.5 -127t-60.5 -89t-90 -52t-112 -16q-59 0 -110.5 16t-89 52t-60 89t-22.5 127zM180 264q0 -111 61.5 -162t151.5 -51t151.5 51.5t61.5 161.5v496 q0 111 -61.5 162t-151.5 51t-151.5 -51.5t-61.5 -161.5v-496zM278 1210l351 246l47 -59l-353 -246z" />
<glyph unicode="&#xf4;" d="M111 264v496q0 74 22.5 127t60 89t89 52t110.5 16t111.5 -16t90.5 -52t60.5 -89t22.5 -127v-496q0 -74 -22.5 -127t-60.5 -89t-90 -52t-112 -16q-59 0 -110.5 16t-89 52t-60 89t-22.5 127zM141 1202l252 252l254 -252l-55 -53l-199 199l-196 -199zM180 264 q0 -111 61.5 -162t151.5 -51t151.5 51.5t61.5 161.5v496q0 111 -61.5 162t-151.5 51t-151.5 -51.5t-61.5 -161.5v-496z" />
<glyph unicode="&#xf5;" d="M111 264v496q0 74 22.5 127t60 89t89 52t110.5 16t111.5 -16t90.5 -52t60.5 -89t22.5 -127v-496q0 -74 -22.5 -127t-60.5 -89t-90 -52t-112 -16q-59 0 -110.5 16t-89 52t-60 89t-22.5 127zM172 1190q0 137 35 189.5t102 52.5q51 0 71.5 -34t35.5 -73q10 -29 23.5 -51.5 t39.5 -22.5q41 0 53.5 36t12.5 134h71q0 -135 -33.5 -187t-103.5 -52q-31 0 -51.5 10t-34.5 27.5t-23.5 38t-17.5 40.5q-8 23 -17.5 42.5t-25.5 19.5q-41 0 -53 -36t-12 -134h-72zM180 264q0 -111 61.5 -162t151.5 -51t151.5 51.5t61.5 161.5v496q0 111 -61.5 162t-151.5 51 t-151.5 -51.5t-61.5 -161.5v-496z" />
<glyph unicode="&#xf6;" d="M111 264v496q0 74 22.5 127t60 89t89 52t110.5 16t111.5 -16t90.5 -52t60.5 -89t22.5 -127v-496q0 -74 -22.5 -127t-60.5 -89t-90 -52t-112 -16q-59 0 -110.5 16t-89 52t-60 89t-22.5 127zM180 264q0 -111 61.5 -162t151.5 -51t151.5 51.5t61.5 161.5v496 q0 111 -61.5 162t-151.5 51t-151.5 -51.5t-61.5 -161.5v-496zM222 1190v231h71v-231h-71zM498 1190v231h72v-231h-72z" />
<glyph unicode="&#xf7;" horiz-adv-x="757" d="M109 674v71h528v-71h-528zM338 446v132h72v-132h-72zM338 844v131h72v-131h-72z" />
<glyph unicode="&#xf8;" d="M27 10l96 152q-12 43 -12 102v496q0 74 22.5 127t60 89t89 52t110.5 16q72 0 133.5 -25.5t100.5 -78.5l69 107l66 -33l-98 -152q14 -43 14 -102v-496q0 -74 -22.5 -127t-60.5 -89t-90 -52t-112 -16q-72 0 -133 25.5t-100 80.5l-72 -111zM180 250l402 620q-27 53 -77 78 t-112 25q-90 0 -151.5 -51.5t-61.5 -161.5v-496v-14zM203 154q27 -53 77 -78t113 -25q90 0 151.5 51.5t61.5 161.5v496v12z" />
<glyph unicode="&#xf9;" d="M111 264v760h69v-760q0 -111 61.5 -162t151.5 -51q96 0 213 35v938h72v-1024h-72v33q-59 -23 -115.5 -38t-97.5 -15q-59 0 -110.5 16t-89 52t-60 89t-22.5 127zM155 1397l45 59l353 -246l-47 -59z" />
<glyph unicode="&#xfa;" d="M111 264v760h69v-760q0 -111 61.5 -162t151.5 -51q96 0 213 35v938h72v-1024h-72v33q-59 -23 -115.5 -38t-97.5 -15q-59 0 -110.5 16t-89 52t-60 89t-22.5 127zM258 1210l351 246l47 -59l-353 -246z" />
<glyph unicode="&#xfb;" d="M111 264v760h69v-760q0 -111 61.5 -162t151.5 -51q96 0 213 35v938h72v-1024h-72v33q-59 -23 -115.5 -38t-97.5 -15q-59 0 -110.5 16t-89 52t-60 89t-22.5 127zM141 1202l252 252l254 -252l-55 -53l-199 199l-196 -199z" />
<glyph unicode="&#xfc;" d="M111 264v760h69v-760q0 -111 61.5 -162t151.5 -51q96 0 213 35v938h72v-1024h-72v33q-59 -23 -115.5 -38t-97.5 -15q-59 0 -110.5 16t-89 52t-60 89t-22.5 127zM222 1190v231h71v-231h-71zM498 1190v231h72v-231h-72z" />
<glyph unicode="&#xfd;" d="M111 264v760h69v-760q0 -111 61.5 -162t151.5 -51q96 0 213 35v938h72v-1255q0 -74 -22.5 -127.5t-60.5 -89t-90 -52t-112 -16.5q-68 0 -136.5 13.5t-137.5 35.5v78q74 -27 142.5 -41t131.5 -14q90 0 151.5 51t61.5 162v264q-59 -23 -115.5 -38t-97.5 -15 q-59 0 -110.5 16t-89 52t-60 89t-22.5 127zM196 1210l351 246l47 -59l-353 -246z" />
<glyph unicode="&#xfe;" d="M111 -496v2016h69v-531q57 23 114.5 39t98.5 16q59 0 111.5 -16t90.5 -52t60.5 -89t22.5 -127v-496q0 -74 -22.5 -127t-60.5 -89t-90 -52t-112 -16q-41 0 -98 15t-115 38v-529h-69zM180 86q117 -35 213 -35q90 0 151.5 51.5t61.5 161.5v496q0 111 -61.5 162t-151.5 51 q-100 0 -213 -37v-850z" />
<glyph unicode="&#xff;" d="M111 264v760h69v-760q0 -111 61.5 -162t151.5 -51q96 0 213 35v938h72v-1255q0 -74 -22.5 -127.5t-60.5 -89t-90 -52t-112 -16.5q-68 0 -136.5 13.5t-137.5 35.5v78q74 -27 142.5 -41t131.5 -14q90 0 151.5 51t61.5 162v264q-59 -23 -115.5 -38t-97.5 -15 q-59 0 -110.5 16t-89 52t-60 89t-22.5 127zM222 1190v231h71v-231h-71zM498 1190v231h72v-231h-72z" />
<glyph unicode="&#x152;" horiz-adv-x="1310" d="M113 297v840q0 82 24.5 141t67.5 98t100 58.5t123 19.5q78 0 141.5 -27.5t102.5 -85.5v93h553v-72h-480v-608h420v-74h-420v-608h480v-72h-553v92q-39 -57 -102.5 -84.5t-141.5 -27.5q-66 0 -123 19t-100 58t-67.5 98.5t-24.5 141.5zM184 297q0 -66 19.5 -112t52.5 -75.5 t77 -44t95 -14.5q104 0 174 58.5t70 187.5v852q-4 121 -74 177t-170 56q-51 0 -95 -14t-77 -44t-52.5 -77t-19.5 -110v-840z" />
<glyph unicode="&#x153;" horiz-adv-x="1310" d="M115 264v496q0 74 22.5 127t60.5 89t89 52t110 16q90 0 154.5 -38.5t93.5 -118.5q29 80 93.5 118.5t154.5 38.5q59 0 111.5 -16t90.5 -52t60.5 -89t22.5 -127v-283h-496v-213q0 -111 60.5 -162t150.5 -51q41 0 106.5 14.5t139.5 40.5v-75q-70 -25 -134.5 -38t-111.5 -13 q-90 0 -154.5 37.5t-93.5 117.5q-29 -80 -93.5 -117.5t-154.5 -37.5q-59 0 -110 16t-89 52t-60.5 89t-22.5 127zM184 264q0 -111 61.5 -162t151.5 -51t151.5 51.5t61.5 161.5v496q0 111 -61.5 162t-151.5 51t-151.5 -51.5t-61.5 -161.5v-496zM682 547h424v213 q0 111 -61.5 162t-151.5 51t-150.5 -51.5t-60.5 -161.5v-213z" />
<glyph unicode="&#x178;" horiz-adv-x="860" d="M43 1434h76l307 -809l301 809h78l-344 -920v-514h-72v518zM252 1600v231h71v-231h-71zM528 1600v231h72v-231h-72z" />
<glyph unicode="&#x2c6;" horiz-adv-x="716" d="M100 1202l252 252l254 -252l-55 -53l-199 199l-196 -199z" />
<glyph unicode="&#x2dc;" horiz-adv-x="716" d="M84 1190q0 137 35 189.5t102 52.5q51 0 71.5 -34t35.5 -73q10 -29 23.5 -51.5t39.5 -22.5q41 0 53.5 36t12.5 134h71q0 -135 -33.5 -187t-103.5 -52q-31 0 -51.5 10t-34.5 27.5t-23.5 38t-17.5 40.5q-8 23 -17.5 42.5t-25.5 19.5q-41 0 -53 -36t-12 -134h-72z" />
<glyph unicode="&#x2000;" horiz-adv-x="935" />
<glyph unicode="&#x2001;" horiz-adv-x="1870" />
<glyph unicode="&#x2002;" horiz-adv-x="935" />
<glyph unicode="&#x2003;" horiz-adv-x="1870" />
<glyph unicode="&#x2004;" horiz-adv-x="623" />
<glyph unicode="&#x2005;" horiz-adv-x="467" />
<glyph unicode="&#x2006;" horiz-adv-x="311" />
<glyph unicode="&#x2007;" horiz-adv-x="311" />
<glyph unicode="&#x2008;" horiz-adv-x="233" />
<glyph unicode="&#x2009;" horiz-adv-x="374" />
<glyph unicode="&#x200a;" horiz-adv-x="103" />
<glyph unicode="&#x2010;" horiz-adv-x="757" d="M109 674v71h528v-71h-528z" />
<glyph unicode="&#x2011;" horiz-adv-x="757" d="M109 674v71h528v-71h-528z" />
<glyph unicode="&#x2012;" horiz-adv-x="757" d="M109 674v71h528v-71h-528z" />
<glyph unicode="&#x2013;" horiz-adv-x="962" d="M111 674v71h727v-71h-727z" />
<glyph unicode="&#x2014;" horiz-adv-x="1167" d="M113 674v71h925v-71h-925z" />
<glyph unicode="&#x2018;" horiz-adv-x="335" d="M106 973v174q0 70 13.5 137.5t36.5 136.5h77q-27 -68 -39 -134t-16 -124h39v-190h-111z" />
<glyph unicode="&#x2019;" horiz-adv-x="335" d="M98 973q25 66 38.5 133.5t17.5 124.5h-39v190h110v-174q0 -70 -13 -138.5t-36 -135.5h-78z" />
<glyph unicode="&#x201a;" horiz-adv-x="327" d="M90 -258q25 68 38 134.5t17 123.5h-39v190h111v-174q0 -70 -13.5 -137t-35.5 -137h-78z" />
<glyph unicode="&#x201c;" horiz-adv-x="540" d="M106 973v174q0 70 13.5 137.5t36.5 136.5h77q-27 -68 -39 -134t-16 -124h39v-190h-111zM311 973v174q0 70 13.5 137.5t36.5 136.5h77q-27 -68 -39 -134t-16 -124h39v-190h-111z" />
<glyph unicode="&#x201d;" horiz-adv-x="542" d="M98 973q25 66 38.5 133.5t17.5 124.5h-39v190h110v-174q0 -70 -13 -138.5t-36 -135.5h-78zM305 973q25 66 38.5 133.5t17.5 124.5h-39v190h110v-174q0 -70 -13 -138.5t-36 -135.5h-78z" />
<glyph unicode="&#x201e;" horiz-adv-x="540" d="M100 -258q25 68 38.5 134.5t17.5 123.5h-41v190h112v-174q0 -70 -13 -137t-38 -137h-76zM299 -258q25 68 38 134.5t17 123.5h-41v190h113v-174q0 -70 -13.5 -137t-37.5 -137h-76z" />
<glyph unicode="&#x2022;" horiz-adv-x="532" d="M109 711q0 66 44 109.5t109 43.5q66 0 111 -44t45 -109q0 -66 -45 -111t-111 -45t-109.5 45t-43.5 111z" />
<glyph unicode="&#x2026;" horiz-adv-x="901" d="M111 0v190h110v-190h-110zM389 0v190h111v-190h-111zM666 0v190h112v-190h-112z" />
<glyph unicode="&#x202f;" horiz-adv-x="374" />
<glyph unicode="&#x2039;" horiz-adv-x="636" d="M100 711l375 374l51 -51l-323 -323l323 -324l-51 -51z" />
<glyph unicode="&#x203a;" horiz-adv-x="636" d="M100 387l324 324l-324 323l52 51l374 -374l-374 -375z" />
<glyph unicode="&#x205f;" horiz-adv-x="467" />
<glyph unicode="&#x20ac;" horiz-adv-x="827" d="M51 537v71h107v205h-107v72h107v241q0 80 24.5 139.5t67.5 98.5t99.5 57.5t121.5 18.5q135 0 274 -49v-78q-74 29 -142 43t-132 14q-102 0 -172 -57.5t-70 -186.5v-241h349v-72h-349v-205h349v-71h-349v-244q0 -127 70 -184.5t172 -57.5q63 0 132 14.5t142 40.5v-75 q-70 -25 -137 -38t-137 -13q-66 0 -122 19t-99 57t-67.5 97.5t-24.5 139.5v244h-107z" />
<glyph unicode="&#x2122;" horiz-adv-x="946" d="M111 1350v71h309v-71h-119v-359h-72v359h-118zM442 1421h78l115 -313l115 313h77l-6 -16v-414h-71v223l-84 -223h-64l-82 219v-219h-71v414z" />
<glyph unicode="&#x25fc;" horiz-adv-x="1024" d="M0 0v1024h1024v-1024h-1024z" />
</font>
</defs>
</svg>
